<svg xmlns="http://www.w3.org/2000/svg" xmlns:xlink="http://www.w3.org/1999/xlink" width="1920" height="1509" viewBox="0 0 1920 1509"><defs><linearGradient id="a" x1="0.5" y1="0.662" x2="0.5" y2="1" gradientUnits="objectBoundingBox"><stop offset="0" stop-color="#e1d1c6"/><stop offset="1" stop-color="#e1d1c6" stop-opacity="0"/></linearGradient><clipPath id="b"><path d="M0,0H1920V1509H0Z" fill="url(#a)"/></clipPath></defs><g clip-path="url(#b)"><g transform="translate(-32295.383 -46818.84)"><rect width="1920" height="935.385" rx="295.385" transform="translate(32295.385 46916.922)" fill="#e55c5c"/><path d="M438.154,105.009a98.462,98.462,0,0,1,157.538,0l320,426.683a98.461,98.461,0,0,1-78.769,157.538h-640a98.462,98.462,0,0,1-78.769-157.539Z" transform="translate(33292.309 48295.383) rotate(180)" fill="#e55c5c"/><path d="M401.984,0H326.955L129.281-304.157a134.867,134.867,0,0,1-12.409-23.952h-1.731q2.309,13.274,2.309,56.849V0H51.078V-413.815h79.935L322.049-116.873q12.12,18.469,15.583,25.395h1.154q-2.886-16.449-2.886-55.695V-413.815h66.083Zm364.3,0h-232.3V-413.815H757.046v58.292H602.658v117.161H744.925v58H602.658V-58H766.28ZM1392.6-413.815,1279.192,0h-77.626l-78.781-289.44a197.854,197.854,0,0,1-6.06-40.4h-1.154a196.044,196.044,0,0,1-6.926,39.823L1029.575,0H950.217L834.5-413.815h75.318l75.029,303a220.683,220.683,0,0,1,5.771,39.823h1.443q1.154-14.717,8.08-39.823l84.841-303h70.7L1234.174-108.5a238.418,238.418,0,0,1,6.06,36.938h1.154q.866-14.429,6.637-38.092l73.586-304.157Z" transform="translate(32590.77 47606.152)" fill="#fff"/></g></g></svg>