<svg xmlns="http://www.w3.org/2000/svg" width="185.853" height="43.121" viewBox="0 0 185.853 43.121"><g transform="translate(-942 -2065)"><path d="M8.771,0H.861V-.976A3.663,3.663,0,0,1,1.028-2.1a4.534,4.534,0,0,1,.448-.984,5.484,5.484,0,0,1,.659-.87q.378-.409.809-.791t.879-.738q.448-.356.879-.716.4-.343.738-.672a4.489,4.489,0,0,0,.571-.681,3.083,3.083,0,0,0,.369-.743,2.64,2.64,0,0,0,.132-.848,2.286,2.286,0,0,0-.154-.875,1.7,1.7,0,0,0-.431-.624,1.838,1.838,0,0,0-.655-.378,2.571,2.571,0,0,0-.826-.127,3.81,3.81,0,0,0-1.573.36A5.384,5.384,0,0,0,1.336-9.7v-1.96a6.429,6.429,0,0,1,.782-.505,5.331,5.331,0,0,1,.817-.36,5.038,5.038,0,0,1,.888-.215,6.659,6.659,0,0,1,.993-.07,5.019,5.019,0,0,1,1.547.224,3.293,3.293,0,0,1,1.187.659,2.9,2.9,0,0,1,.76,1.085,3.9,3.9,0,0,1,.268,1.494,4.647,4.647,0,0,1-.189,1.375,4.451,4.451,0,0,1-.536,1.138,5.906,5.906,0,0,1-.839,1q-.492.475-1.1.976-.51.413-1.015.8t-.91.765a4.269,4.269,0,0,0-.655.747,1.34,1.34,0,0,0-.25.751v.044H8.771Zm6.082.211A3.52,3.52,0,0,1,11.782-1.4a8.2,8.2,0,0,1-1.1-4.649A9.1,9.1,0,0,1,11.83-11.1a3.758,3.758,0,0,1,3.322-1.714q4.157,0,4.157,6.46a8.5,8.5,0,0,1-1.173,4.882A3.776,3.776,0,0,1,14.854.211Zm.2-11.4q-2.294,0-2.294,5.054,0,4.729,2.25,4.729,2.215,0,2.215-4.808Q17.227-11.188,15.056-11.188ZM24.847.211A3.52,3.52,0,0,1,21.775-1.4a8.2,8.2,0,0,1-1.1-4.649A9.1,9.1,0,0,1,21.823-11.1a3.758,3.758,0,0,1,3.322-1.714q4.157,0,4.157,6.46a8.5,8.5,0,0,1-1.173,4.882A3.776,3.776,0,0,1,24.847.211Zm.2-11.4q-2.294,0-2.294,5.054,0,4.729,2.25,4.729,2.215,0,2.215-4.808Q27.22-11.188,25.049-11.188Zm15.39,6.706H36.967v3.472h-1.45V-4.482H32.045v-1.45h3.472v-3.48h1.45v3.48h3.472ZM48.4-.5V-2.654a3.326,3.326,0,0,0,.69.475,5.331,5.331,0,0,0,.848.356,6.684,6.684,0,0,0,.9.224,4.779,4.779,0,0,0,.826.079,3.526,3.526,0,0,0,1.964-.439,1.446,1.446,0,0,0,.646-1.274,1.39,1.39,0,0,0-.215-.778,2.258,2.258,0,0,0-.6-.6,6.326,6.326,0,0,0-.91-.523q-.523-.25-1.121-.523-.642-.343-1.2-.694a5.144,5.144,0,0,1-.962-.778,3.254,3.254,0,0,1-.642-.962,3.134,3.134,0,0,1-.233-1.257,2.9,2.9,0,0,1,.4-1.542,3.377,3.377,0,0,1,1.055-1.081,4.835,4.835,0,0,1,1.49-.633,7.074,7.074,0,0,1,1.705-.207,6.882,6.882,0,0,1,2.883.448V-10.3a4.6,4.6,0,0,0-2.76-.773,4.945,4.945,0,0,0-.927.088,2.756,2.756,0,0,0-.826.29,1.788,1.788,0,0,0-.593.519,1.271,1.271,0,0,0-.229.765,1.446,1.446,0,0,0,.176.729,1.882,1.882,0,0,0,.514.563,5.253,5.253,0,0,0,.826.5q.488.242,1.129.523.659.343,1.244.721a5.863,5.863,0,0,1,1.028.835,3.669,3.669,0,0,1,.7,1.015,2.981,2.981,0,0,1,.259,1.27,3.147,3.147,0,0,1-.387,1.617A3.117,3.117,0,0,1,55.042-.571a4.639,4.639,0,0,1-1.507.6,8.5,8.5,0,0,1-1.8.185,7.672,7.672,0,0,1-.778-.048Q50.493.114,50.01.022A8.691,8.691,0,0,1,49.1-.2,2.894,2.894,0,0,1,48.4-.5ZM66.718,0H64.134l-3.5-4.324H60.6V0H58.553V-13.324H60.6v8.446h.035L63.94-9h2.452L62.675-4.658Zm2.312-10.89a1.226,1.226,0,0,1-.857-.325,1.07,1.07,0,0,1-.356-.826,1.1,1.1,0,0,1,.356-.835,1.208,1.208,0,0,1,.857-.334,1.246,1.246,0,0,1,.879.334,1.091,1.091,0,0,1,.36.835,1.076,1.076,0,0,1-.36.813A1.237,1.237,0,0,1,69.029-10.89ZM70.04,0H68V-9H70.04Zm4.711,0H72.7V-13.324h2.048Zm4.7,0H77.405V-13.324h2.048ZM89.728-3.946H83.593a2.593,2.593,0,0,0,.769,1.925,2.861,2.861,0,0,0,2.017.677,4.448,4.448,0,0,0,2.646-.861V-.562a6.044,6.044,0,0,1-3.252.773,4.026,4.026,0,0,1-3.116-1.226,4.9,4.9,0,0,1-1.129-3.45,4.8,4.8,0,0,1,1.244-3.423A4.068,4.068,0,0,1,85.86-9.211a3.547,3.547,0,0,1,2.856,1.187,4.926,4.926,0,0,1,1.011,3.3ZM87.759-5.388A2.627,2.627,0,0,0,87.24-7.1a1.733,1.733,0,0,0-1.406-.611,1.979,1.979,0,0,0-1.49.642,2.931,2.931,0,0,0-.751,1.679ZM99.853,0H97.813V-1.529h-.035A3.252,3.252,0,0,1,94.746.211,3.273,3.273,0,0,1,92.087-1a5.017,5.017,0,0,1-1-3.292,5.465,5.465,0,0,1,1.1-3.577,3.61,3.61,0,0,1,2.94-1.345,2.815,2.815,0,0,1,2.646,1.459h.035v-5.572h2.039ZM97.84-4.113V-5.291a2.3,2.3,0,0,0-.624-1.626,2.081,2.081,0,0,0-1.591-.668,2.142,2.142,0,0,0-1.8.853,3.8,3.8,0,0,0-.655,2.364A3.4,3.4,0,0,0,93.8-2.2a2.044,2.044,0,0,0,1.692.8,2.116,2.116,0,0,0,1.7-.769A2.9,2.9,0,0,0,97.84-4.113ZM.976,21.5V19.346a3.326,3.326,0,0,0,.69.475,5.331,5.331,0,0,0,.848.356,6.684,6.684,0,0,0,.9.224,4.779,4.779,0,0,0,.826.079A3.526,3.526,0,0,0,6.2,20.04a1.446,1.446,0,0,0,.646-1.274,1.39,1.39,0,0,0-.215-.778,2.258,2.258,0,0,0-.6-.6,6.326,6.326,0,0,0-.91-.523Q4.6,16.612,4,16.34,3.357,16,2.8,15.646a5.145,5.145,0,0,1-.962-.778,3.254,3.254,0,0,1-.642-.962,3.134,3.134,0,0,1-.233-1.257,2.9,2.9,0,0,1,.4-1.542,3.377,3.377,0,0,1,1.055-1.081,4.835,4.835,0,0,1,1.49-.633,7.074,7.074,0,0,1,1.705-.207A6.882,6.882,0,0,1,8.5,9.634V11.7a4.6,4.6,0,0,0-2.76-.773,4.945,4.945,0,0,0-.927.088,2.756,2.756,0,0,0-.826.29,1.788,1.788,0,0,0-.593.519,1.271,1.271,0,0,0-.229.765,1.446,1.446,0,0,0,.176.729,1.882,1.882,0,0,0,.514.563,5.253,5.253,0,0,0,.826.5q.488.242,1.129.523.659.343,1.244.721a5.863,5.863,0,0,1,1.028.835,3.669,3.669,0,0,1,.7,1.015,2.981,2.981,0,0,1,.259,1.27,3.147,3.147,0,0,1-.387,1.617,3.117,3.117,0,0,1-1.042,1.072,4.639,4.639,0,0,1-1.507.6,8.5,8.5,0,0,1-1.8.185,7.672,7.672,0,0,1-.778-.048q-.461-.048-.945-.141A8.691,8.691,0,0,1,1.67,21.8,2.894,2.894,0,0,1,.976,21.5Zm14.379.4a3.534,3.534,0,0,1-1.573.3q-2.619,0-2.619-2.514V14.6h-1.5V13h1.5V10.917l2.039-.58V13h2.153v1.6H13.2v4.5a1.773,1.773,0,0,0,.29,1.143,1.2,1.2,0,0,0,.967.343,1.4,1.4,0,0,0,.9-.3Zm8.666.1H22.043V20.594h-.035a2.978,2.978,0,0,1-2.733,1.617A2.879,2.879,0,0,1,17.2,21.49a2.521,2.521,0,0,1-.751-1.907q0-2.549,2.936-2.971l2.672-.378q0-1.925-1.828-1.925a4.343,4.343,0,0,0-2.9,1.107V13.633a6.325,6.325,0,0,1,3.287-.844q3.41,0,3.41,3.357Zm-1.969-4.421-1.89.264a3,3,0,0,0-1.323.426,1.246,1.246,0,0,0-.444,1.094,1.2,1.2,0,0,0,.409.936,1.583,1.583,0,0,0,1.094.365,2.019,2.019,0,0,0,1.542-.655,2.322,2.322,0,0,0,.611-1.648ZM31.6,10.337a1.854,1.854,0,0,0-.94-.237q-1.485,0-1.485,1.679V13h2.092v1.6H29.18V22H27.141V14.6H25.6V13h1.538V11.541A2.841,2.841,0,0,1,28.072,9.3,3.393,3.393,0,0,1,30.4,8.474a3.459,3.459,0,0,1,1.2.167Zm6.205,0a1.854,1.854,0,0,0-.94-.237q-1.485,0-1.485,1.679V13h2.092v1.6H35.385V22H33.346V14.6H31.808V13h1.538V11.541A2.841,2.841,0,0,1,34.277,9.3a3.393,3.393,0,0,1,2.329-.822,3.459,3.459,0,0,1,1.2.167Z" transform="translate(1028 2084)" fill="#312f2c"/><g transform="translate(942 2064.996)"><path d="M73.33,41.31l-.88-4.75,2.71-.02a48.532,48.532,0,0,0-.11-9.18,10.71,10.71,0,0,0-3.26-5.83l-.6.28a17.263,17.263,0,0,0-3.92,2.67,15.044,15.044,0,0,1-2.58,1.88l-.37.2-.33-.26c-.53-.41-1.09-.92-1.68-1.44-1.37-1.23-2.89-2.59-4.3-2.95l-.86-.22a11.077,11.077,0,0,0-3.1,5.78,46.886,46.886,0,0,0-.13,9.05l2.75.05c-.3,1.6-.6,3.2-.9,4.81-.22,1.07.11,1.4,1.08,1.45h15.5c.83.05,1.36-.23,1-1.51Z" fill="#ef7f1a" fill-rule="evenodd"/><path d="M26.79,36c.25.45.19,2.29.16,5.19a1.744,1.744,0,0,0,1.87,1.93h.43V31.47a16.119,16.119,0,0,1,1.06-6.49,7.756,7.756,0,0,1,3.93-3.99l.12-.06.12-.01c.64-.04,1.51.79,2.44,1.69a16.651,16.651,0,0,0,1.67,1.48l3.44-3.39.33.07a5.353,5.353,0,0,1,2.32,1.29,10.682,10.682,0,0,1,2.07,2.47,8.893,8.893,0,0,1,1.12,3.07,20.89,20.89,0,0,1,.18,3.43v7.55l.01,4.48.01.06h.58a1.947,1.947,0,0,0,1.78-2.08c.07-4.45-.03-6.02-.03-10.45.01-11.48-9.95-15.42-17.1-11.78-5.51,2.8-5.55,7.14-6.4,9.06-.64-.75-4.43-4.79-5.48-5.06-2.68-.7,0,1.84-6.27-4.08-.99-.93-2.54-3.23-4.12-3.02-1.18,1.66.61,1.9,2.83,4.32a31.966,31.966,0,0,0,4.22,3.88c-.46,3.27-.35,2.58,3.53,6.62a64.243,64.243,0,0,1,5.18,5.49Z" fill="#ef7f1a" fill-rule="evenodd"/><path d="M55.42,18.43l18.02.05c.26-3.17.37-10.37-.78-12.88A8.947,8.947,0,0,0,64.38.3a9.055,9.055,0,0,0-8.2,5.38c-1.17,2.6-.96,9.52-.77,12.75Zm1.57-8.64c-.04,7.26,11.94,9.63,14.56,1.96-3.22-1.48-5.37-2.86-6.77-5.34a37.937,37.937,0,0,0-3.67,2.02,37.487,37.487,0,0,1-4.12,1.36Z" fill="#ef7f1a" fill-rule="evenodd"/><path d="M37.04.21C25.83,2.53,29.8,19.09,40.52,16.58,51.06,14.1,47.68-1.99,37.04.21ZM31.87,7.37c-.41,8.22,9.86,10.25,12.92,3.68,1.98-4.25-.47-5.4-1.58-6.36-.74-.65-.96-.96-2.18-.61a90.353,90.353,0,0,0-9.16,3.29Z" fill="#ef7f1a" fill-rule="evenodd"/><path d="M0,8.15v17.6c0,2.21,1.08,3.49,3.3,3.49,4.12,0,11.98.16,15.51-.05-3.14-3.02-.65-2.47-7.39-2.47-3.2,0-5.71.22-8.81-.06-.27-2.23-.21-16.08-.07-19.02a1.616,1.616,0,0,1,1.2-.25c3.81,0,16.11-.17,18.85.1.57,4.04-.26,11.8.09,14.29.16,1.13,2.02,2.19,2.46,2.94.25-3.51.06-11.85.06-16.13,0-2.45-.96-3.72-3.44-3.72H3.52C1.31,4.87,0,5.92,0,8.15Z" fill="#ef7f1a" fill-rule="evenodd"/><path d="M59.51,21.11a18.686,18.686,0,0,1,3.66,2.79c.44.4.87.78,1.28,1.11a15.93,15.93,0,0,0,1.99-1.52,19.932,19.932,0,0,1,3.26-2.36,13.376,13.376,0,0,0-5.06-.82,13.252,13.252,0,0,0-5.12.8Z" fill="#fecc00" fill-rule="evenodd"/><path d="M39.12,30.96l6.53.01.05-3.01-6.58-.08Z" fill="#ef7f1a" fill-rule="evenodd"/><path d="M30.54,43.06l16.21-.01V31.02a19.293,19.293,0,0,0-.17-3.22,7.589,7.589,0,0,0-.96-2.63,9.048,9.048,0,0,0-1.8-2.14,4.833,4.833,0,0,0-1.41-.9l-3.57,3.53-.4-.16a10.127,10.127,0,0,1-2.43-1.95c-.63-.61-1.22-1.17-1.41-1.3a6.479,6.479,0,0,0-3.12,3.25,14.945,14.945,0,0,0-.95,5.96v11.6Z" fill="#fecc00" fill-rule="evenodd"/></g></g></svg>